<svg id="Layer_5" enable-background="new 0 0 64 64" height="512" viewBox="0 0 64 64" width="512" xmlns="http://www.w3.org/2000/svg" xmlns:xlink="http://www.w3.org/1999/xlink"><linearGradient id="SVGID_1_" gradientUnits="userSpaceOnUse" x1="32" x2="32" y1="63" y2="1.014"><stop offset="0" stop-color="#9f2fff"/><stop offset="1" stop-color="#0bb1d3"/></linearGradient><path d="m9 57h2v2h-2zm-4 2h2v-2h-2zm8-2v2h2v-2zm-4-14h2v-2h-2zm0 8h2v-2h-2zm0-4h2v-2h-2zm24 2h-18v-8h18zm-16-2h6v-4h-6zm14-4h-6v4h6zm28-6v16h4v10h-62v-10h4v-31c-1.321 0-2.555-.652-3.301-1.742-.603-.882-.827-1.945-.63-2.995.197-1.052.792-1.962 1.675-2.565l18.998-12.999c1.336-.914 3.184-.913 4.517 0l19 13c.882.602 1.476 1.512 1.673 2.562.196 1.051-.027 2.114-.63 2.996-.747 1.091-1.981 1.743-3.302 1.743v3h13.46l5.772 6.734c.496.578.768 1.316.768 2.077 0 1.758-1.431 3.189-3.19 3.189zm-16-10v8h16.81c.656 0 1.19-.533 1.19-1.189 0-.284-.102-.56-.287-.775l-5.173-6.036zm-36-5.549v9.549h12v-8h10v8h12v-9.549c-.087-.051-.177-.094-.261-.152l-.437-.299h-32.604l-.44.301c-.082.057-.172.1-.258.15zm30.379-2.451-13.379-9.153-13.379 9.153zm-10.379 12v-6h-6v6zm-20 6h4v-4h-4zm6 0h4v-4h-4zm6 0h4v-4h-4zm6 0h4v-4h-4zm6 0h4v-4h-4zm6 0h4v-4h-4zm-30.873-17.349 17.873-12.228 17.869 12.227c.882.604 2.179.358 2.782-.521.301-.441.413-.974.315-1.499-.099-.524-.396-.979-.836-1.279l-19.001-13.001c-.667-.457-1.591-.457-2.258 0l-18.999 12.999c-.442.302-.739.757-.838 1.282-.098.524.014 1.057.315 1.498.602.879 1.906 1.123 2.778.522zm.873 33.349h10v-2h8v10h10v-10h6v-12h-34zm34 0h-4v8h4zm-18 0h-4v8h4zm-20 8h14v-6h-14zm58-6h-18v6h18zm-4-18h-14v14 1 1h14zm-12 12v-8h10v8zm2-2h6v-4h-6zm8 10h-2v2h2zm-4 0h-2v2h2zm-4 2v-2h-2v2zm12-2h-2v2h2z" fill="url(#SVGID_1_)"/></svg>